<?xml version="1.0" encoding="UTF-8"?>
<svg width="18px" height="18px" viewBox="0 0 18 18" xmlns="http://www.w3.org/2000/svg" xmlns:xlink="http://www.w3.org/1999/xlink" version="1.1">
 <!-- Generated by Pixelmator Pro 2.0.5 -->
 <path id="Traçado" d="M16.313 2.25 L1.688 2.25 C0.756 2.25 0 3.006 0 3.938 L0 14.063 C0 14.994 0.756 15.75 1.688 15.75 L16.313 15.75 C17.244 15.75 18 14.994 18 14.063 L18 3.938 C18 3.006 17.244 2.25 16.313 2.25 Z M16.313 3.938 L16.313 5.372 C15.524 6.014 14.268 7.012 11.581 9.116 10.989 9.582 9.816 10.7 9 10.687 8.184 10.701 7.011 9.581 6.419 9.116 3.733 7.012 2.476 6.014 1.687 5.372 L1.687 3.938 Z M1.688 14.063 L1.688 7.537 C2.493 8.179 3.635 9.079 5.377 10.443 6.145 11.048 7.491 12.383 9 12.375 10.502 12.383 11.83 11.067 12.623 10.443 14.364 9.08 15.507 8.179 16.313 7.537 L16.313 14.063 Z" fill="#ff4b4b" fill-opacity="1" stroke="none"/>
</svg>
